<svg xmlns="http://www.w3.org/2000/svg" viewBox="0 0 512 512" width="100%" height="100%" fill="none">
  <defs>
    <linearGradient id="shieldGrad" x1="0%" y1="0%" x2="100%" y2="100%">
      <stop offset="0%" stop-color="#10b981" /> <stop offset="100%" stop-color="#06b6d4" /> </linearGradient>
    <linearGradient id="capGrad" x1="0%" y1="100%" x2="100%" y2="0%">
      <stop offset="0%" stop-color="#059669" /> <stop offset="100%" stop-color="#3b82f6" /> </linearGradient>
    <filter id="glow" x="-20%" y="-20%" width="140%" height="140%">
      <feGaussianBlur stdDeviation="12" result="blur" />
      <feComposite in="SourceGraphic" in2="blur" operator="over" />
    </filter>
  </defs>

  <path d="M256 40 C360 40 430 70 430 70 C430 220 370 380 256 460 C142 380 82 220 82 70 C82 70 152 40 256 40Z" 
        fill="url(#shieldGrad)" opacity="0.15" filter="url(#glow)"/>

  <path d="M256 55 C345 55 405 82 405 82 C405 210 350 350 256 425 C162 350 107 210 107 82 C107 82 167 55 256 55Z" 
        stroke="url(#shieldGrad)" stroke-width="20" stroke-linejoin="round" fill="#0f172a" />

  <g transform="translate(0, -10)">
    <polygon points="256,130 380,190 256,250 132,190" fill="url(#capGrad)" stroke="#0f172a" stroke-width="6" />
    
    <path d="M180 225 V260 C180 285 214 295 256 295 C298 295 332 285 332 260 V225" 
          fill="none" stroke="url(#shieldGrad)" stroke-width="14" stroke-linecap="round" />
    
    <path d="M380 192 V270 C380 290 365 310 365 310" fill="none" stroke="#06b6d4" stroke-width="8" stroke-linecap="round" stroke-linejoin="round"/>
    <circle cx="365" cy="315" r="12" fill="#22d3ee" />
    
    <circle cx="256" cy="210" r="18" fill="#f8fafc" />
    <path d="M246 210 V195 C246 190 250 186 256 186 C262 186 266 190 266 195 V210" fill="none" stroke="#f8fafc" stroke-width="5" stroke-linecap="round"/>
  </g>
</svg>
